<mxfile host="app.diagrams.net" modified="2023-08-21T01:52:21.018Z" agent="Mozilla/5.0 (Windows NT 10.0; Win64; x64) AppleWebKit/537.36 (KHTML, like Gecko) Chrome/115.0.0.0 Safari/537.36" version="21.6.8" etag="E4lFGO5rN-jADu-fiUp2" type="github">
  <diagram name="페이지-1" id="MFKN5Ci9k2T4Dopon6Y4">
    <mxGraphModel>
      <root>
        <mxCell id="0" />
        <mxCell id="1" parent="0" />
      </root>
    </mxGraphModel>
  </diagram>
</mxfile>
